<?xml version="1.0" standalone="no"?>
<!DOCTYPE svg PUBLIC "-//W3C//DTD SVG 20010904//EN"
 "http://www.w3.org/TR/2001/REC-SVG-20010904/DTD/svg10.dtd">
<svg version="1.0" xmlns="http://www.w3.org/2000/svg"
 width="16.000000pt" height="16.000000pt" viewBox="0 0 16.000000 16.000000"
 preserveAspectRatio="xMidYMid meet">
<metadata>
Created by potrace 1.11, written by Peter Selinger 2001-2013
</metadata>
<g transform="translate(0.000000,16.000000) scale(0.001389,-0.001389)"
fill="#000000" stroke="none">
<path d="M3864 11507 c-28 -8 -79 -28 -113 -46 -34 -17 -92 -41 -129 -52 -212
-65 -389 -224 -512 -462 -30 -56 -58 -104 -62 -106 -5 -2 -36 -36 -68 -77 -68
-86 -113 -173 -136 -264 -22 -88 -15 -232 17 -315 20 -52 23 -80 24 -215 2
-211 31 -315 109 -393 20 -21 36 -48 40 -72 10 -50 31 -92 65 -128 33 -37 67
-54 129 -68 48 -10 50 -12 56 -50 15 -92 91 -187 164 -206 21 -5 24 -10 18
-41 -7 -46 -68 -138 -109 -163 -44 -27 -140 -56 -282 -85 -270 -55 -532 -146
-643 -224 -122 -86 -162 -142 -314 -438 -224 -436 -266 -534 -343 -817 -153
-559 -155 -576 -165 -1090 -8 -415 -27 -678 -75 -1070 -29 -242 -14 -291 96
-314 33 -7 34 -8 46 -81 32 -189 139 -424 254 -554 42 -48 109 -80 149 -71 21
5 42 -2 82 -24 83 -46 126 -45 176 5 35 35 36 35 79 25 52 -14 76 -4 99 40 11
21 13 43 9 70 -7 38 -6 39 23 39 46 0 60 9 72 45 18 53 -2 105 -71 187 -71 85
-84 108 -94 166 -8 49 1 53 46 19 43 -31 109 -30 143 2 32 30 33 56 4 109 -29
53 -169 222 -229 276 -42 39 -45 43 -38 77 5 20 13 159 18 310 19 496 116
1105 258 1599 66 231 64 237 59 -340 -3 -283 -10 -555 -16 -605 -37 -342 -50
-562 -50 -890 0 -215 4 -354 11 -379 6 -22 25 -56 41 -76 l30 -35 4 -265 c1
-146 8 -341 13 -435 6 -93 15 -386 21 -650 11 -544 26 -1071 41 -1445 5 -140
12 -395 16 -565 7 -338 6 -346 -53 -672 -41 -226 -40 -232 52 -284 69 -39 78
-56 70 -130 -4 -32 -4 -93 0 -136 6 -66 11 -82 35 -105 l27 -28 1104 0 c607 0
1304 -3 1549 -6 l446 -7 18 27 c17 25 17 29 -5 96 -44 137 -165 299 -287 386
-44 33 -62 51 -58 62 8 22 -12 77 -56 152 -55 94 -78 174 -106 365 -22 148
-24 191 -19 330 6 169 34 414 60 530 28 123 65 341 81 467 38 307 4 675 -121
1293 -46 231 -84 423 -84 428 0 10 48 -3 90 -25 44 -23 102 -24 123 0 8 9 18
34 22 55 8 39 14 44 33 25 16 -16 66 20 70 52 2 14 -12 55 -32 94 -20 39 -39
88 -43 109 l-6 37 54 -25 c71 -33 113 -32 146 1 31 31 27 66 -16 127 -16 23
-47 92 -68 152 -33 95 -38 122 -38 200 l0 90 79 134 c133 227 152 272 206 477
17 64 36 103 96 195 50 75 73 104 69 84 -59 -271 -87 -412 -100 -515 -66 -516
-90 -642 -299 -1560 -75 -332 -122 -568 -132 -661 -7 -75 -4 -80 79 -128 113
-65 315 -114 519 -128 53 -3 102 -9 108 -13 18 -11 30 -202 20 -305 -5 -49
-21 -157 -34 -240 -62 -381 -70 -492 -50 -685 13 -129 69 -493 124 -809 26
-147 25 -199 -4 -291 -39 -122 -56 -223 -56 -332 0 -95 20 -213 38 -229 4 -4
237 -10 519 -13 l512 -7 12 22 c6 12 14 50 17 85 7 96 -17 157 -101 256 -95
114 -149 191 -190 273 -42 85 -55 138 -67 270 -11 122 7 265 69 575 48 234 85
468 111 708 26 229 20 204 103 450 l71 212 58 0 c40 0 58 -4 58 -12 0 -7 5
-44 11 -83 22 -151 14 -303 -30 -555 -78 -454 -76 -513 25 -1238 l36 -254 -41
-131 c-22 -73 -46 -163 -52 -200 -14 -82 -7 -298 11 -345 l12 -32 627 2 626 3
12 48 c15 62 7 105 -31 170 -29 48 -45 61 -213 162 -206 125 -279 179 -318
235 l-28 40 12 92 c15 116 43 229 125 494 83 271 96 351 121 769 13 225 14
234 59 390 58 198 67 260 69 436 2 131 3 140 22 144 113 24 203 38 350 55 251
30 337 56 379 113 46 63 16 225 -109 607 -87 264 -112 366 -155 615 -18 99
-70 338 -117 530 -119 490 -215 957 -199 972 6 7 103 -187 151 -302 45 -109
69 -153 203 -364 140 -220 146 -235 139 -335 -7 -95 -51 -247 -96 -330 -34
-64 -34 -89 1 -119 28 -23 57 -22 124 8 31 14 58 25 60 25 15 0 -2 -75 -32
-146 -31 -71 -35 -89 -26 -109 13 -29 52 -41 80 -26 18 9 21 7 27 -27 4 -20
14 -45 22 -54 22 -25 76 -22 132 6 25 13 67 33 93 45 48 21 93 71 117 129 12
28 14 29 42 19 40 -16 80 7 96 53 14 42 16 227 3 329 -6 42 -24 108 -44 155
-19 44 -53 126 -76 181 -31 74 -45 121 -51 181 -22 216 -78 398 -205 664 -57
120 -83 192 -118 320 -46 170 -94 311 -139 411 -29 64 -32 56 55 169 26 34 52
78 57 98 16 55 -5 91 -170 293 -20 24 -80 106 -133 182 -73 104 -101 152 -112
195 -24 94 -56 163 -100 218 l-42 52 15 43 c18 52 8 89 -32 115 -78 51 -404
152 -564 175 -79 11 -247 8 -282 -6 -22 -8 -108 71 -130 120 -10 22 -19 57
-19 77 0 35 2 37 49 53 89 29 191 112 191 154 0 7 18 29 41 49 52 47 67 76 75
146 6 53 10 58 98 148 70 71 100 110 128 168 64 131 70 216 26 342 -19 57 -19
58 0 85 21 32 38 74 47 120 7 33 -21 113 -44 127 -6 4 -11 23 -11 41 0 46 -27
123 -56 162 -13 17 -42 39 -64 49 -24 11 -40 25 -40 35 0 9 -9 47 -21 84 -15
51 -31 78 -64 111 -25 24 -51 44 -59 44 -8 0 -28 24 -44 54 -53 92 -126 141
-246 162 -22 4 -54 15 -70 25 -36 21 -145 51 -157 43 -5 -2 -22 2 -38 11 -17
8 -70 25 -118 36 -121 29 -218 23 -309 -20 -54 -25 -79 -31 -138 -31 -181 -1
-317 -68 -462 -230 -17 -19 -64 -64 -104 -99 -83 -74 -115 -120 -131 -188 -6
-26 -26 -79 -45 -118 -52 -105 -62 -171 -41 -251 l17 -65 -29 -58 c-78 -154
-80 -310 -5 -409 26 -33 29 -45 30 -127 3 -138 45 -237 140 -326 22 -21 58
-60 82 -87 46 -54 151 -115 220 -128 20 -4 53 -19 73 -35 19 -15 47 -33 62
-40 24 -11 27 -18 27 -61 0 -57 -18 -105 -50 -133 -21 -19 -36 -20 -229 -20
-256 1 -324 15 -516 110 -140 68 -223 119 -440 269 -146 102 -352 213 -445
240 -30 9 -156 34 -280 56 -124 21 -256 48 -293 60 -75 23 -84 35 -93 120 l-5
45 79 43 c145 79 241 174 308 305 52 102 67 180 58 309 -5 85 -3 129 11 203
21 112 40 147 93 174 87 44 126 132 125 276 -1 110 -28 219 -83 328 -30 58
-40 90 -40 126 0 76 -27 139 -85 197 -29 29 -59 71 -68 96 -37 96 -134 170
-242 184 -40 6 -60 16 -98 50 -80 71 -217 123 -327 124 -25 0 -81 12 -125 26
-96 31 -226 40 -301 21z m1650 -4051 c89 -36 206 -76 261 -91 132 -35 228 -65
240 -77 6 -5 -68 -85 -203 -216 -168 -164 -212 -212 -212 -233 0 -22 23 -63
122 -219 15 -24 12 -37 -46 -255 -91 -336 -101 -365 -181 -541 -91 -200 -129
-313 -144 -428 -17 -130 -48 -292 -58 -311 -15 -26 -26 1537 -13 1875 11 286
25 495 36 538 4 12 13 22 22 22 8 0 87 -29 176 -64z m-1298 -3762 c25 -82 65
-230 89 -329 184 -759 192 -801 170 -949 -41 -273 -65 -710 -73 -1345 l-7
-474 -90 82 c-49 45 -100 99 -112 120 -22 35 -100 311 -129 451 -31 154 -27
548 11 1070 8 107 17 283 20 390 6 188 21 506 47 943 7 119 16 203 21 198 4
-4 29 -75 53 -157z"/>
</g>
</svg>
