<?xml version="1.0" standalone="yes"?>

<svg version="1.1" viewBox="0.0 0.0 732.989501312336 133.33333333333334" fill="none" stroke="none" stroke-linecap="square" stroke-miterlimit="10" xmlns="http://www.w3.org/2000/svg" xmlns:xlink="http://www.w3.org/1999/xlink"><clipPath id="p.0"><path d="m0 0l732.9895 0l0 133.33333l-732.9895 0l0 -133.33333z" clip-rule="nonzero"></path></clipPath><g clip-path="url(#p.0)"><path fill="#000000" fill-opacity="0.0" d="m0 0l732.9895 0l0 133.33333l-732.9895 0z" fill-rule="evenodd"></path><path fill="#e69138" d="m23.501703 28.701944c-1.2563934 0 -2.6201706 0.096645355 -4.0913315 0.28993607c-1.4604206 0.19329262 -2.9315834 0.60672 -4.4134817 1.2402859c-1.4818993 0.62282753 -2.9154758 1.5302219 -4.3007298 2.7221832c-1.3852539 1.1919632 -2.6094313 2.7973557 -3.6725326 4.8161736c-1.0631018 2.0080795 -1.9168048 4.4886513 -2.5611086 7.4417114c-0.64430404 2.9423218 -0.96645594 6.4913635 -0.96645594 10.647125l0 29.23529c0 4.1235504 0.31141376 7.6779556 0.9342408 10.663231c0.6335654 2.974533 1.4711609 5.4765854 2.5127854 7.5061417c1.0523629 2.0295563 2.2604332 3.66716 3.6242104 4.912819c1.3745146 1.2349167 2.8080912 2.1906357 4.300729 2.867157c1.503376 0.6765137 3.0013828 1.1167908 4.4940205 1.3208237c1.503376 0.21476746 2.8993683 0.32215118 4.187977 0.32215118c5.669874 -0.032218933 10.018925 -1.6268692 13.047153 -4.7839584c3.0282326 -3.1570892 4.542347 -8.0538025 4.542347 -14.690132l0 -7.635002l-11.452505 0l0 8.069908c0 1.6429749 -0.17181396 3.0711823 -0.5154438 4.284622c-0.33288956 1.2026978 -0.7839031 2.2013702 -1.3530388 2.9960098c-0.5583954 0.783905 -1.2080688 1.3637772 -1.9490185 1.739624c-0.74094963 0.36510468 -1.5141144 0.5476608 -2.3194942 0.5476608c-1.2563934 0 -2.3302326 -0.21477509 -3.2215214 -0.64431c-0.88054657 -0.4402771 -1.5946522 -1.1758499 -2.142311 -2.2067413c-0.547657 -1.0308838 -0.9449768 -2.400032 -1.1919613 -4.107437c-0.2362442 -1.7074051 -0.3543682 -3.8497162 -0.3543682 -6.4269333l0 -37.69178c0 -2.6416473 0.15033913 -4.8483887 0.45101357 -6.620224c0.31141472 -1.7718353 0.7570572 -3.1946754 1.3369312 -4.2685165c0.57987404 -1.0845795 1.3047161 -1.8523712 2.1745262 -2.3033867c0.8698101 -0.45101166 1.8845882 -0.6765175 3.0443363 -0.6765175c1.9329109 0 3.3987026 1.127533 4.397375 3.382595c0.9986706 2.255066 1.4980068 5.6537666 1.4980068 10.19611l0 4.2040863l10.147789 0c0.3543663 -1.8040543 0.6174545 -3.4523964 0.7892723 -4.945034c0.18254852 -1.503376 0.2738266 -3.1409836 0.2738266 -4.912819c0 -2.3839226 -0.2845688 -4.6389885 -0.85370255 -6.76519c-0.5583992 -2.1262054 -1.5087471 -3.9839478 -2.8510437 -5.5732307c-1.331562 -1.6000214 -3.1034012 -2.8564148 -5.315508 -3.7691784c-2.2013721 -0.92350197 -4.945034 -1.3852539 -8.230984 -1.3852539z" fill-rule="evenodd"></path><path fill="#e69138" d="m70.32649 79.682495l0 20.827133c-0.6765137 0.77316284 -1.5087357 1.4281998 -2.4966736 1.965126c-0.97719574 0.52617645 -1.9812393 0.7892685 -3.012123 0.7892685c-2.1906319 0 -3.785286 -0.77316284 -4.7839546 -2.3194885c-0.9986725 -1.5463333 -1.4980087 -3.5919952 -1.4980087 -6.137001c0 -1.6429749 0.19865799 -3.1302414 0.5959816 -4.4617996c0.40805817 -1.342308 0.9396095 -2.5450058 1.5946541 -3.6081085c0.6657791 -1.0631027 1.4174652 -1.9812317 2.255062 -2.7543945c0.8375969 -0.7731705 1.6912994 -1.4335785 2.5611115 -1.9812393c0.9342346 -0.57987213 1.8040466 -1.0469894 2.6094284 -1.4013596c0.8053818 -0.35437012 1.53022 -0.660408 2.1745224 -0.9181366zm-5.17054 -35.034027c-2.5449982 0 -4.8806 0.33288956 -7.0068016 0.9986725c-2.1262054 0.65504074 -3.9571037 1.6268654 -5.492691 2.915474c-1.5248566 1.2886086 -2.716816 2.8832626 -3.5758896 4.7839584c-0.84833527 1.9006958 -1.2724991 4.0913315 -1.2724991 6.5718994c0 1.0308876 0.069797516 2.0725136 0.20940018 3.124874c0.1503334 1.0416298 0.37047195 2.1906319 0.66041183 3.4470253l9.326298 0l0 -2.8993645c0 -1.9006996 0.18255234 -3.49535 0.5476608 -4.7839584c0.37584305 -1.2886086 0.8751755 -2.3194962 1.4980049 -3.092659c0.633564 -0.77316666 1.3584061 -1.3208237 2.1745262 -1.6429749c0.8268547 -0.32215118 1.67519 -0.48322678 2.5449982 -0.48322678c1.2886124 0 2.3033905 0.2362442 3.044342 0.7087326c0.7409439 0.46175385 1.2939758 1.1060562 1.6590805 1.9329109c0.37584686 0.81612015 0.61209106 1.7825775 0.7087326 2.8993683c0.09664917 1.1060562 0.14496613 2.3033867 0.14496613 3.5919952l0 8.79475c-1.1919556 0.45101166 -2.5557327 0.9933014 -4.091324 1.6268692c-1.5248566 0.6228256 -2.8993683 1.2402802 -4.1235504 1.8523712c-2.5449982 1.2563934 -4.7839546 2.5879593 -6.7168694 3.9946823c-1.9329109 1.3959961 -3.554409 2.9476929 -4.8644943 4.655098c-1.2993469 1.7074051 -2.2872772 3.6242142 -2.9637985 5.750412c-0.6765175 2.1262054 -1.0147781 4.5584564 -1.0147781 7.2967453c0 2.2872772 0.2791977 4.4081116 0.8375969 6.362503c0.56913376 1.9436493 1.4013596 3.6242065 2.4966774 5.0416794c1.0953178 1.4174652 2.4376144 2.539627 4.0269012 3.3664856c1.6000175 0.81611633 3.4309158 1.2241821 5.492691 1.2241821c2.834938 0 5.353092 -0.5959854 7.5544624 -1.7879486c2.2121124 -1.1919632 3.9785767 -2.7382889 5.2994003 -4.6389847l0.869812 5.7020874l9.084686 0l0 -49.820805c0 -2.9315834 -0.2684555 -5.492691 -0.8053818 -7.6833267c-0.52617645 -2.1906319 -1.444313 -4.010792 -2.7544022 -5.460476c-1.2993393 -1.4496841 -3.0443344 -2.5342636 -5.23497 -3.2537346c-2.190628 -0.73021317 -4.94503 -1.0953178 -8.263199 -1.0953178z" fill-rule="evenodd"></path><path fill="#e69138" d="m114.928444 44.648468c-1.8362732 0 -3.6349487 0.6281967 -5.3960495 1.8845901c-1.7503586 1.2563934 -3.3020554 3.1409798 -4.655098 5.6537666l-1.0631027 -6.76519l-8.939713 0l0 66.5405l12.225662 0l0 -54.798054c0.5476608 -1.127533 1.2295532 -2.0027122 2.0456696 -2.6255379c0.8268585 -0.633564 1.7235107 -0.9503479 2.689972 -0.9503479c0.45101166 0 0.8698044 0.10738373 1.2563858 0.32215118c0.38658905 0.20402908 0.7248459 0.57450485 1.0147858 1.1114235c0.28993225 0.5261841 0.520813 1.2241783 0.69262695 2.0939865c0.18254852 0.869812 0.2738266 1.9812355 0.2738266 3.3342743l0 6.185322l8.504814 0c0.22550201 -0.6765213 0.4402771 -1.4228363 0.64430237 -2.2389603c0.21476746 -0.8268547 0.3919525 -1.6483421 0.53154755 -2.4644623c0.15034485 -0.8268547 0.26309967 -1.616127 0.33826447 -2.367817c0.08590698 -0.76242447 0.12886047 -1.417469 0.12886047 -1.965126c0 -4.3168373 -0.8376007 -7.5544662 -2.5127869 -9.712883c-1.6751938 -2.1584206 -4.2685165 -3.237629 -7.7799683 -3.237629z" fill-rule="evenodd"></path><path fill="#e69138" d="m171.0312 28.701944c-2.9960022 0 -5.6806183 0.46175194 -8.053787 1.3852539c-2.3624573 0.9127636 -4.34906 2.2013721 -5.9598236 3.8658237c-1.6107483 1.6537132 -2.8456726 3.6242104 -3.7047424 5.9114876c-0.8483429 2.287281 -1.2725067 4.800068 -1.2725067 7.538357c0 3.414814 0.62820435 6.630966 1.8845978 9.648453c1.2563934 3.0067558 3.044342 5.9920273 5.3638306 8.95583l13.04715 15.51162c1.1597595 1.4496841 2.1101074 2.765129 2.8510437 3.9463577c0.74095154 1.1704865 1.3261871 2.2872772 1.7557373 3.35038c0.44026184 1.0631027 0.7463074 2.13694 0.9181366 3.2215195c0.1825409 1.0738373 0.27381897 2.255066 0.27381897 3.5436707c0 2.5127869 -0.6281891 4.424225 -1.8845825 5.7343063c-1.2563934 1.2993469 -3.0765533 1.9490204 -5.4604797 1.9490204c-1.5141144 0 -2.7973633 -0.29530334 -3.8497162 -0.88591766c-1.041626 -0.6013489 -1.8792267 -1.4872665 -2.5127869 -2.657753c-0.62283325 -1.1812286 -1.0738373 -2.625534 -1.3530426 -4.332947c-0.26846313 -1.7074051 -0.40267944 -3.6725311 -0.40267944 -5.895378l0 -4.0107956l-9.712891 0c-0.41879272 1.739624 -0.73558044 3.3611221 -0.9503479 4.864502c-0.20402527 1.49263 -0.30604553 3.1248703 -0.30604553 4.8967056c0 2.1906357 0.29530334 4.332947 0.8859253 6.4269333c0.6013489 2.0939865 1.6322327 3.962471 3.0926514 5.605446c1.4711609 1.6429749 3.4362946 2.9637985 5.8953857 3.962471c2.4698334 0.9986725 5.573227 1.4980011 9.310196 1.4980011c3.0282288 0 5.750412 -0.4402771 8.16655 -1.320816c2.4161377 -0.8912964 4.4779205 -2.1584244 6.185318 -3.8013992c1.7074127 -1.6429749 3.0174866 -3.6403122 3.930252 -5.9920273c0.9235077 -2.3517075 1.3852539 -4.993355 1.3852539 -7.9249344c0 -3.5436783 -0.708725 -6.8994293 -2.1262054 -10.067253c-1.4174652 -3.178566 -3.4470215 -6.4913635 -6.088669 -9.938393l-14.545166 -17.589497c-0.61209106 -0.80537796 -1.1597443 -1.5785446 -1.6429749 -2.3194923c-0.4832306 -0.74095154 -0.8966522 -1.503376 -1.2402802 -2.287281c-0.332901 -0.7946396 -0.59062195 -1.6590805 -0.77316284 -2.5933228c-0.17182922 -0.93424225 -0.25772095 -1.9812355 -0.25772095 -3.1409836c0 -2.1906319 0.5798645 -3.9356232 1.739624 -5.23497c1.1597443 -1.3100853 2.9154663 -1.965126 5.2671814 -1.965126c2.8349304 0 4.8806 1.1704865 6.1369934 3.5114555c1.2563934 2.3302345 1.8845825 5.6859856 1.8845825 10.067253l0 3.9141464l9.664566 0c0.35437012 -1.8040543 0.6657715 -3.4523964 0.9342346 -4.945034c0.27920532 -1.503376 0.41880798 -3.1409836 0.41880798 -4.912819c0 -2.0939865 -0.3006897 -4.1772385 -0.9020233 -6.249748c-0.59062195 -2.083252 -1.6107635 -3.962471 -3.0604553 -5.637661c-1.4496765 -1.67519 -3.393341 -3.0282288 -5.830948 -4.0591145c-2.42688 -1.0308857 -5.4604797 -1.5463295 -9.1008 -1.5463295z" fill-rule="evenodd"></path><path fill="#e69138" d="m217.17949 53.58819c2.0295563 0 3.5597687 0.96645355 4.5906677 2.8993645c1.0308838 1.9329147 1.5463257 5.090004 1.5463257 9.4712715c0 0.45101166 0 0.9933014 0 1.6268692c0 0.6228256 -0.0107421875 1.2563934 -0.032211304 1.9006958c-0.0107421875 0.64430237 -0.032226562 1.267128 -0.064437866 1.8684769c-0.032211304 0.5906143 -0.06442261 1.0631027 -0.09664917 1.4174728l-12.273987 0l0 -4.0591125c0 -2.867157 0.12886047 -5.267189 0.38658142 -7.2001c0.25772095 -1.9329109 0.64430237 -3.4846115 1.1597443 -4.655098c0.5154419 -1.181221 1.1758575 -2.018818 1.981247 -2.512783c0.80537415 -0.5047035 1.7396088 -0.7570572 2.802719 -0.7570572zm0.5798645 -8.93972c-1.1919556 0 -2.4913025 0.091278076 -3.8980408 0.2738304c-1.3959961 0.17181396 -2.802719 0.57450485 -4.2201843 1.2080688c-1.4174652 0.6228256 -2.7973633 1.5302238 -4.1396484 2.7221832c-1.3315735 1.1919632 -2.507431 2.813465 -3.5275726 4.864498c-1.0094147 2.0402946 -1.8309021 4.569191 -2.4644623 7.5866776c-0.62283325 3.006752 -0.9342346 6.620224 -0.9342346 10.840416l0 12.563927c0 4.9611435 0.38658142 9.208176 1.1597443 12.741112c0.77316284 3.522194 1.9168091 6.4108276 3.4309235 8.665894c1.5141144 2.2550583 3.3718414 3.9141464 5.573227 4.9772415c2.2120972 1.0631027 4.7517395 1.5946579 7.6188965 1.5946579c5.7020874 0 10.056503 -1.4389496 13.063263 -4.316841c3.0174866 -2.8886337 4.52623 -7.4900284 4.52623 -13.8042145l0 -2.5611038l-10.196106 0l0 2.0778809c0 1.7396164 -0.16107178 3.200035 -0.4832306 4.3812637c-0.3221588 1.1704865 -0.7516937 2.1100998 -1.2886047 2.8188324c-0.5261841 0.7087326 -1.1436462 1.2188034 -1.8523712 1.53022c-0.70874023 0.30067444 -1.4335785 0.45101166 -2.17453 0.45101166c-1.3852539 0 -2.5396423 -0.26309204 -3.4631348 -0.7892685c-0.9127655 -0.53692627 -1.637619 -1.4067383 -2.17453 -2.609436c-0.5261841 -1.21344 -0.9020233 -2.8080902 -1.127533 -4.783951c-0.22550964 -1.9866104 -0.33825684 -4.429596 -0.33825684 -7.328964l0 -6.76519l22.083527 0c0.22549438 -1.0631027 0.44026184 -2.222847 0.64430237 -3.4792404c0.2147522 -1.2563934 0.38658142 -2.5503693 0.5154419 -3.8819351c0.12886047 -1.3422928 0.23086548 -2.70607 0.30604553 -4.091324c0.08589172 -1.3852539 0.12886047 -2.7544022 0.12886047 -4.107445c0 -3.9946823 -0.46176147 -7.328953 -1.3852539 -10.002815c-0.9127655 -2.6738625 -2.1423187 -4.805435 -3.6886444 -6.394718c-1.5463257 -1.6000214 -3.3342743 -2.7275543 -5.3638306 -3.382595c-2.0295563 -0.6657829 -4.1396484 -0.9986725 -6.3302917 -0.9986725z" fill-rule="evenodd"></path><path fill="#e69138" d="m264.97073 79.682495l0 20.827133c-0.6765137 0.77316284 -1.508728 1.4281998 -2.4966736 1.965126c-0.97720337 0.52617645 -1.9812317 0.7892685 -3.0121155 0.7892685c-2.1906433 0 -3.7852936 -0.77316284 -4.783966 -2.3194885c-0.9986725 -1.5463333 -1.4980011 -3.5919952 -1.4980011 -6.137001c0 -1.6429749 0.19865417 -3.1302414 0.5959778 -4.4617996c0.40805054 -1.342308 0.9396057 -2.5450058 1.5946503 -3.6081085c0.6657715 -1.0631027 1.4174805 -1.9812317 2.255066 -2.7543945c0.83758545 -0.7731705 1.6912842 -1.4335785 2.5610962 -1.9812393c0.93426514 -0.57987213 1.8040466 -1.0469894 2.609436 -1.4013596c0.8053894 -0.35437012 1.5302124 -0.660408 2.17453 -0.9181366zm-5.170532 -35.034027c-2.5450134 0 -4.880615 0.33288956 -7.0068054 0.9986725c-2.1262054 0.65504074 -3.9571075 1.6268654 -5.492691 2.915474c-1.5248718 1.2886086 -2.7168274 2.8832626 -3.5758972 4.7839584c-0.8483429 1.9006958 -1.2724915 4.0913315 -1.2724915 6.5718994c0 1.0308876 0.0697937 2.0725136 0.20939636 3.124874c0.15032959 1.0416298 0.37046814 2.1906319 0.66041565 3.4470253l9.326294 0l0 -2.8993645c0 -1.9006996 0.1825409 -3.49535 0.5476532 -4.7839584c0.37583923 -1.2886086 0.8751831 -2.3194962 1.4980164 -3.092659c0.6335602 -0.77316666 1.3583984 -1.3208237 2.17453 -1.6429749c0.82684326 -0.32215118 1.6751709 -0.48322678 2.544983 -0.48322678c1.2886047 0 2.3034058 0.2362442 3.044342 0.7087326c0.7409668 0.46175385 1.2939758 1.1060562 1.6590881 1.9329109c0.3758545 0.81612015 0.61209106 1.7825775 0.70874023 2.8993683c0.09664917 1.1060562 0.1449585 2.3033867 0.1449585 3.5919952l0 8.79475c-1.1919556 0.45101166 -2.5557556 0.9933014 -4.091339 1.6268692c-1.5248413 0.6228256 -2.899353 1.2402802 -4.123535 1.8523712c-2.5449982 1.2563934 -4.783951 2.5879593 -6.716873 3.9946823c-1.9329071 1.3959961 -3.5544128 2.9476929 -4.8644867 4.655098c-1.2993622 1.7074051 -2.2872772 3.6242142 -2.9638062 5.750412c-0.6765137 2.1262054 -1.0147705 4.5584564 -1.0147705 7.2967453c0 2.2872772 0.27919006 4.4081116 0.83758545 6.362503c0.5691376 1.9436493 1.4013672 3.6242065 2.4966888 5.0416794c1.0953064 1.4174652 2.4376068 2.539627 4.026886 3.3664856c1.6000214 0.81611633 3.4309235 1.2241821 5.4927063 1.2241821c2.8349457 0 5.353073 -0.5959854 7.5544586 -1.7879486c2.2121277 -1.1919632 3.9785767 -2.7382889 5.299408 -4.6389847l0.869812 5.7020874l9.084686 0l0 -49.820805c0 -2.9315834 -0.26846313 -5.492691 -0.8053894 -7.6833267c-0.5261841 -2.1906319 -1.4443054 -4.010792 -2.7543945 -5.460476c-1.2993469 -1.4496841 -3.044342 -2.5342636 -5.2349854 -3.2537346c-2.1906128 -0.73021317 -4.945038 -1.0953178 -8.263184 -1.0953178z" fill-rule="evenodd"></path><path fill="#e69138" d="m294.44763 28.170393l-2.464447 17.251242l-6.2336426 0l0 8.698101l5.170532 0l0 41.26767c0 3.6081085 0.3597412 6.539688 1.0792236 8.794754c0.7302246 2.255066 1.7073975 4.02153 2.9315796 5.2994003c1.2241821 1.267128 2.6255188 2.1262054 4.204071 2.577217c1.5785522 0.45101166 3.221527 0.6765137 4.9289246 0.6765137c0.869812 0 1.7557373 -0.06443024 2.6577759 -0.19329071c0.90200806 -0.12886047 1.7879333 -0.35973358 2.6577454 -0.69262695c0.869812 -0.34362793 1.7127686 -0.7892685 2.5289001 -1.3369293c0.82684326 -0.5476532 1.594635 -1.2563934 2.3033752 -2.1261978l0 -6.7651978c-0.83758545 0.5154419 -1.7181396 0.9181366 -2.6416626 1.2080688c-0.91275024 0.28993988 -1.9651184 0.434906 -3.157074 0.434906c-0.70874023 0 -1.3852539 -0.08053589 -2.0295715 -0.2416153c-0.6442871 -0.16107178 -1.2080688 -0.48859406 -1.6912842 -0.9825592c-0.48321533 -0.50470734 -0.8644409 -1.1973343 -1.1436462 -2.0778809c-0.26843262 -0.89128876 -0.40267944 -2.0617752 -0.40267944 -3.5114594l0 -42.330772l10.631012 0l0 -8.698101l-10.631012 0l0 -17.251242z" fill-rule="evenodd"></path><path fill="#e69138" d="m361.80963 28.701944c-1.2564087 0 -2.6201782 0.096645355 -4.091339 0.28993607c-1.4604187 0.19329262 -2.9315796 0.60672 -4.4134827 1.2402859c-1.4819031 0.62282753 -2.9154663 1.5302219 -4.30072 2.7221832c-1.3852539 1.1919632 -2.609436 2.7973557 -3.6725464 4.8161736c-1.0630798 2.0080795 -1.9168091 4.4886513 -2.5610962 7.4417114c-0.6443176 2.9423218 -0.9664612 6.4913635 -0.9664612 10.647125l0 29.23529c0 4.1235504 0.31143188 7.6779556 0.9342346 10.663231c0.63357544 2.974533 1.4711914 5.4765854 2.5127869 7.5061417c1.0523682 2.0295563 2.260437 3.66716 3.6242065 4.912819c1.3745422 1.2349167 2.8081055 2.1906357 4.3007507 2.867157c1.5033875 0.6765137 3.0013733 1.1167908 4.4940186 1.3208237c1.5033875 0.21476746 2.899353 0.32215118 4.187958 0.32215118c5.6698914 -0.032218933 10.018951 -1.6268692 13.04718 -4.7839584c3.0282288 -3.1570892 4.542328 -8.0538025 4.542328 -14.690132l0 -7.635002l-11.452515 0l0 8.069908c0 1.6429749 -0.17178345 3.0711823 -0.5154419 4.284622c-0.33285522 1.2026978 -0.7838745 2.2013702 -1.3530273 2.9960098c-0.5583801 0.783905 -1.2080688 1.3637772 -1.9490356 1.739624c-0.7409363 0.36510468 -1.5140991 0.5476608 -2.3194885 0.5476608c-1.2563782 0 -2.3302002 -0.21477509 -3.2214966 -0.64431c-0.8805542 -0.4402771 -1.5946655 -1.1758499 -2.142334 -2.2067413c-0.54763794 -1.0308838 -0.9449463 -2.400032 -1.1919556 -4.107437c-0.23623657 -1.7074051 -0.35437012 -3.8497162 -0.35437012 -6.4269333l0 -37.69178c0 -2.6416473 0.1503601 -4.8483887 0.4510193 -6.620224c0.31143188 -1.7718353 0.75704956 -3.1946754 1.3369141 -4.2685165c0.579895 -1.0845795 1.304718 -1.8523712 2.17453 -2.3033867c0.869812 -0.45101166 1.884613 -0.6765175 3.044342 -0.6765175c1.9329224 0 3.3987122 1.127533 4.3973694 3.382595c0.99868774 2.255066 1.4980164 5.6537666 1.4980164 10.19611l0 4.2040863l10.147797 0c0.35437012 -1.8040543 0.61746216 -3.4523964 0.7892761 -4.945034c0.18255615 -1.503376 0.2738037 -3.1409836 0.2738037 -4.912819c0 -2.3839226 -0.2845459 -4.6389885 -0.85369873 -6.76519c-0.5583801 -2.1262054 -1.508728 -3.9839478 -2.8510437 -5.5732307c-1.331543 -1.6000214 -3.103363 -2.8564148 -5.3154907 -3.7691784c-2.201355 -0.92350197 -4.945038 -1.3852539 -8.230988 -1.3852539z" fill-rule="evenodd"></path><path fill="#e69138" d="m408.63443 79.682495l0 20.827133c-0.6765137 0.77316284 -1.5087585 1.4281998 -2.4966736 1.965126c-0.97720337 0.52617645 -1.9812622 0.7892685 -3.012146 0.7892685c-2.1906128 0 -3.7852783 -0.77316284 -4.7839355 -2.3194885c-0.99868774 -1.5463333 -1.4980164 -3.5919952 -1.4980164 -6.137001c0 -1.6429749 0.19866943 -3.1302414 0.5959778 -4.4617996c0.40808105 -1.342308 0.93963623 -2.5450058 1.5946655 -3.6081085c0.6657715 -1.0631027 1.41745 -1.9812317 2.255066 -2.7543945c0.83758545 -0.7731705 1.6912842 -1.4335785 2.5610962 -1.9812393c0.9342346 -0.57987213 1.8040466 -1.0469894 2.609436 -1.4013596c0.8053894 -0.35437012 1.5302124 -0.660408 2.17453 -0.9181366zm-5.1705627 -35.034027c-2.544983 0 -4.8805847 0.33288956 -7.0068054 0.9986725c-2.1261902 0.65504074 -3.9570923 1.6268654 -5.492676 2.915474c-1.5248413 1.2886086 -2.7167969 2.8832626 -3.5758972 4.7839584c-0.84832764 1.9006958 -1.2724915 4.0913315 -1.2724915 6.5718994c0 1.0308876 0.0697937 2.0725136 0.20941162 3.124874c0.15032959 1.0416298 0.37045288 2.1906319 0.6604004 3.4470253l9.326294 0l0 -2.8993645c0 -1.9006996 0.18255615 -3.49535 0.54766846 -4.7839584c0.3758545 -1.2886086 0.8751831 -2.3194962 1.4979858 -3.092659c0.63357544 -0.77316666 1.358429 -1.3208237 2.17453 -1.6429749c0.8268738 -0.32215118 1.6752014 -0.48322678 2.5450134 -0.48322678c1.2886047 0 2.3033752 0.2362442 3.044342 0.7087326c0.7409363 0.46175385 1.2939758 1.1060562 1.6590881 1.9329109c0.3758545 0.81612015 0.61206055 1.7825775 0.7087097 2.8993683c0.09664917 1.1060562 0.14498901 2.3033867 0.14498901 3.5919952l0 8.79475c-1.1919861 0.45101166 -2.555725 0.9933014 -4.091339 1.6268692c-1.5248413 0.6228256 -2.8993835 1.2402802 -4.123535 1.8523712c-2.5450134 1.2563934 -4.783966 2.5879593 -6.7168884 3.9946823c-1.9328918 1.3959961 -3.5543823 2.9476929 -4.864502 4.655098c-1.2993164 1.7074051 -2.287262 3.6242142 -2.9637756 5.750412c-0.6765137 2.1262054 -1.014801 4.5584564 -1.014801 7.2967453c0 2.2872772 0.27923584 4.4081116 0.83761597 6.362503c0.56915283 1.9436493 1.4013672 3.6242065 2.4966736 5.0416794c1.0953064 1.4174652 2.437622 2.539627 4.026886 3.3664856c1.6000366 0.81611633 3.4309387 1.2241821 5.4927063 1.2241821c2.8349304 0 5.3530884 -0.5959854 7.554474 -1.7879486c2.2120972 -1.1919632 3.9785767 -2.7382889 5.2993774 -4.6389847l0.869812 5.7020874l9.084686 0l0 -49.820805c0 -2.9315834 -0.26843262 -5.492691 -0.8053589 -7.6833267c-0.5261841 -2.1906319 -1.4443054 -4.010792 -2.754425 -5.460476c-1.2993164 -1.4496841 -3.0443115 -2.5342636 -5.234955 -3.2537346c-2.1906433 -0.73021317 -4.945038 -1.0953178 -8.263214 -1.0953178z" fill-rule="evenodd"></path><path fill="#e69138" d="m433.3757 24.062956l0 87.89917l12.225647 0l0 -87.89917z" fill-rule="evenodd"></path><path fill="#e69138" d="m475.3199 44.648468c-1.127533 0 -2.3678284 0.091278076 -3.7208557 0.2738304c-1.3530273 0.17181396 -2.7221985 0.57450485 -4.1074524 1.2080688c-1.3852539 0.6228256 -2.7329102 1.5302238 -4.0429993 2.7221832c-1.2993164 1.1919632 -2.459076 2.813465 -3.479248 4.864498c-1.0093994 2.0402946 -1.8201599 4.569191 -2.4322205 7.5866776c-0.61209106 3.006752 -0.91815186 6.620224 -0.91815186 10.840416l0 12.563927c0 9.439056 1.4711609 16.461967 4.4134827 21.06874c2.953064 4.6067734 7.2323303 6.910164 12.837769 6.910164c5.5410156 0 9.702148 -1.4389496 12.483368 -4.316841c2.7920227 -2.8886337 4.1879883 -7.4900284 4.1879883 -13.8042145l0 -2.5611038l-10.534363 0l0 2.0778809c0 1.7396164 -0.1395874 3.200035 -0.41879272 4.3812637c-0.26846313 1.1704865 -0.62283325 2.1100998 -1.0631104 2.8188324c-0.4295349 0.7087326 -0.9342346 1.2188034 -1.5141296 1.53022c-0.5798645 0.30067444 -1.1758423 0.45101166 -1.7879333 0.45101166c-1.1919556 0 -2.1906433 -0.28993225 -2.9960022 -0.8698044c-0.8053894 -0.57987976 -1.449707 -1.5033798 -1.9329224 -2.7705078c-0.48321533 -1.2778778 -0.82147217 -2.9315872 -1.0147705 -4.9611435c-0.19329834 -2.0295563 -0.2899475 -4.4940186 -0.2899475 -7.393387l0 -18.894218c0 -2.8671494 0.118133545 -5.2510757 0.35437012 -7.1517715c0.24700928 -1.9006996 0.61746216 -3.414814 1.1114197 -4.542343c0.5047302 -1.127533 1.127533 -1.9221725 1.8684998 -2.3839264c0.7409363 -0.4724884 1.6107483 -0.7087326 2.6094055 -0.7087326c1.8040771 0 3.098053 0.9449806 3.881958 2.8349342c0.7946472 1.8792229 1.1919556 4.4940224 1.1919556 7.8444023l0 2.222847l9.7612 0c0.25772095 -1.0308838 0.45639038 -2.09935 0.5959778 -3.20541c0.1503601 -1.1167908 0.22549438 -2.4483566 0.22549438 -3.9946861c0 -2.480568 -0.37045288 -4.6389885 -1.1114197 -6.475254c-0.7409363 -1.8362656 -1.7879333 -3.355751 -3.1409607 -4.558449c-1.3530579 -1.21344 -2.9638062 -2.115467 -4.832306 -2.7060776c-1.8684692 -0.6013527 -3.9302368 -0.90202713 -6.1853027 -0.90202713z" fill-rule="evenodd"></path><path fill="#e69138" d="m500.54437 45.421635l0 50.980556c0 5.4765778 1.0523987 9.567909 3.1571045 12.273987c2.1154785 2.7060776 5.122223 4.0591125 9.020264 4.0591125c1.2241821 0 2.4483643 -0.12886047 3.6725464 -0.38658142c1.2241821 -0.25772095 2.4215088 -0.68188477 3.59198 -1.2724991c1.1812134 -0.6013489 2.3087769 -1.4067307 3.3825684 -2.4161377c1.0845947 -1.0201492 2.1101074 -2.2872772 3.0765991 -3.8013916l0.04827881 0l1.2080688 7.103447l9.326294 0l0 -66.5405l-12.225647 0l0 53.92824c-0.93426514 1.2563934 -1.9812622 2.222847 -3.1409912 2.8993683c-1.159729 0.6765213 -2.3516846 1.0147781 -3.5758667 1.0147781c-1.739624 0 -3.0604248 -0.5691376 -3.9624634 -1.7074051c-0.9020386 -1.1490097 -1.3530273 -3.1893005 -1.3530273 -6.1208878l0 -50.014095z" fill-rule="evenodd"></path><path fill="#e69138" d="m549.97864 24.062956l0 87.89917l12.225647 0l0 -87.89917z" fill-rule="evenodd"></path><path fill="#e69138" d="m595.0638 79.682495l0 20.827133c-0.6765137 0.77316284 -1.5087891 1.4281998 -2.496704 1.965126c-0.97717285 0.52617645 -1.9812012 0.7892685 -3.012085 0.7892685c-2.1906128 0 -3.7852783 -0.77316284 -4.7839355 -2.3194885c-0.99871826 -1.5463333 -1.4980469 -3.5919952 -1.4980469 -6.137001c0 -1.6429749 0.19866943 -3.1302414 0.5960083 -4.4617996c0.40802002 -1.342308 0.9395752 -2.5450058 1.5946655 -3.6081085c0.66571045 -1.0631027 1.4174194 -1.9812317 2.255005 -2.7543945c0.8376465 -0.7731705 1.6913452 -1.4335785 2.5611572 -1.9812393c0.9342041 -0.57987213 1.8040161 -1.0469894 2.609436 -1.4013596c0.8053589 -0.35437012 1.5302124 -0.660408 2.1744995 -0.9181366zm-5.170532 -35.034027c-2.544983 0 -4.880615 0.33288956 -7.006836 0.9986725c-2.1261597 0.65504074 -3.9570923 1.6268654 -5.492676 2.915474c-1.5248413 1.2886086 -2.716858 2.8832626 -3.5758667 4.7839584c-0.8483887 1.9006958 -1.272522 4.0913315 -1.272522 6.5718994c0 1.0308876 0.06976318 2.0725136 0.20941162 3.124874c0.15032959 1.0416298 0.3704834 2.1906319 0.6604004 3.4470253l9.326294 0l0 -2.8993645c0 -1.9006996 0.18255615 -3.49535 0.54766846 -4.7839584c0.3758545 -1.2886086 0.8751831 -2.3194962 1.4979858 -3.092659c0.6335449 -0.77316666 1.3583984 -1.3208237 2.1745605 -1.6429749c0.82684326 -0.32215118 1.6751709 -0.48322678 2.544983 -0.48322678c1.2886353 0 2.3034058 0.2362442 3.0443726 0.7087326c0.74090576 0.46175385 1.2939453 1.1060562 1.6590576 1.9329109c0.37579346 0.81612015 0.61206055 1.7825775 0.70874023 2.8993683c0.09661865 1.1060562 0.1449585 2.3033867 0.1449585 3.5919952l0 8.79475c-1.1919556 0.45101166 -2.5557861 0.9933014 -4.0913086 1.6268692c-1.5249023 0.6228256 -2.899414 1.2402802 -4.123535 1.8523712c-2.545044 1.2563934 -4.7839966 2.5879593 -6.716919 3.9946823c-1.9329224 1.3959961 -3.5543823 2.9476929 -4.864502 4.655098c-1.2993164 1.7074051 -2.2872314 3.6242142 -2.963745 5.750412c-0.6765747 2.1262054 -1.0148315 4.5584564 -1.0148315 7.2967453c0 2.2872772 0.2791748 4.4081116 0.8376465 6.362503c0.5690918 1.9436493 1.4013062 3.6242065 2.496643 5.0416794c1.0953369 1.4174652 2.437622 2.539627 4.0269165 3.3664856c1.5999756 0.81611633 3.4309082 1.2241821 5.492676 1.2241821c2.834961 0 5.3530884 -0.5959854 7.5544434 -1.7879486c2.2120972 -1.1919632 3.9785767 -2.7382889 5.2994385 -4.6389847l0.869812 5.7020874l9.084656 0l0 -49.820805c0 -2.9315834 -0.26843262 -5.492691 -0.8053589 -7.6833267c-0.5261841 -2.1906319 -1.4443359 -4.010792 -2.7543945 -5.460476c-1.2993774 -1.4496841 -3.0443115 -2.5342636 -5.2349854 -3.2537346c-2.1906128 -0.73021317 -4.9450073 -1.0953178 -8.263184 -1.0953178z" fill-rule="evenodd"></path><path fill="#e69138" d="m624.5407 28.170393l-2.4644775 17.251242l-6.2336426 0l0 8.698101l5.170532 0l0 41.26767c0 3.6081085 0.3597412 6.539688 1.0792236 8.794754c0.7301636 2.255066 1.7073975 4.02153 2.9315796 5.2994003c1.2241821 1.267128 2.6255493 2.1262054 4.2041016 2.577217c1.5784912 0.45101166 3.2214966 0.6765137 4.928894 0.6765137c0.869812 0 1.7557373 -0.06443024 2.6577759 -0.19329071c0.9020386 -0.12886047 1.7879028 -0.35973358 2.6577148 -0.69262695c0.869812 -0.34362793 1.7127686 -0.7892685 2.5289307 -1.3369293c0.82684326 -0.5476532 1.5946655 -1.2563934 2.3033447 -2.1261978l0 -6.7651978c-0.83758545 0.5154419 -1.7181396 0.9181366 -2.6416016 1.2080688c-0.91278076 0.28993988 -1.9651489 0.434906 -3.1571045 0.434906c-0.70874023 0 -1.3852539 -0.08053589 -2.029541 -0.2416153c-0.64434814 -0.16107178 -1.2080688 -0.48859406 -1.6913452 -0.9825592c-0.48321533 -0.50470734 -0.8644409 -1.1973343 -1.1436157 -2.0778809c-0.26849365 -0.89128876 -0.40270996 -2.0617752 -0.40270996 -3.5114594l0 -42.330772l10.6310425 0l0 -8.698101l-10.6310425 0l0 -17.251242z" fill-rule="evenodd"></path><path fill="#e69138" d="m669.0943 53.58819c1.0953369 0 2.0187988 0.28993607 2.7705078 0.8698082c0.76239014 0.57987595 1.3745117 1.5248528 1.8363037 2.834938c0.47247314 1.2993469 0.81073 3.012123 1.0147705 5.1383247c0.21472168 2.1262054 0.32214355 4.7517395 0.32214355 7.8766174l0 16.381432c0 3.1248703 -0.107421875 5.745041 -0.32214355 7.860504c-0.20404053 2.1047287 -0.54229736 3.8013916 -1.0147705 5.090004c-0.461792 1.2886047 -1.0739136 2.217476 -1.8363037 2.7866135c-0.751709 0.5583954 -1.6751709 0.8375931 -2.7705078 0.8375931c-1.159729 0 -2.136963 -0.2791977 -2.9315796 -0.8375931c-0.78393555 -0.5691376 -1.4335938 -1.4980087 -1.9490356 -2.7866135c-0.5154419 -1.2886124 -0.88586426 -2.9852753 -1.1113892 -5.090004c-0.2255249 -2.1154633 -0.33825684 -4.735634 -0.33825684 -7.860504l0 -16.381432c0 -3.124878 0.11273193 -5.750412 0.33825684 -7.8766174c0.2255249 -2.1262016 0.59594727 -3.8389778 1.1113892 -5.1383247c0.5154419 -1.3100853 1.1651001 -2.255062 1.9490356 -2.834938c0.7946167 -0.57987213 1.7718506 -0.8698082 2.9315796 -0.8698082zm-0.04827881 -8.93972c-1.3852539 0 -2.8027344 0.10738373 -4.2524414 0.32215118c-1.449707 0.20402908 -2.8618164 0.6389351 -4.236267 1.304718c-1.3638306 0.65504074 -2.6577759 1.6053886 -3.881958 2.8510437c-1.2241821 1.2349167 -2.2980347 2.8993683 -3.2214966 4.993355c-0.91278076 2.0939903 -1.6376343 4.681946 -2.1745605 7.7638664c-0.5261841 3.0711784 -0.7892456 6.765194 -0.7892456 11.082027l0 10.437721c0 4.3812714 0.25769043 8.150452 0.7731323 11.307541c0.5154419 3.1570892 1.2241821 5.814842 2.1262207 7.973259c0.9020386 2.1584167 1.9543457 3.8980408 3.1571045 5.2188644c1.2133789 1.3208237 2.5020142 2.3356018 3.8657837 3.0443344c1.3745117 0.7087326 2.7919922 1.1758575 4.2524414 1.4013596c1.4711304 0.22550964 2.9154663 0.33826447 4.332947 0.33826447c1.2885742 0 2.6308594 -0.12348938 4.0269165 -0.37047577c1.4066772 -0.2362442 2.78656 -0.7248459 4.1396484 -1.4657898c1.3530273 -0.74095154 2.6416016 -1.777214 3.8657837 -3.1087723c1.2241821 -1.3423004 2.3034058 -3.092659 3.237671 -5.2510757c0.9342041 -2.1584167 1.6751709 -4.800064 2.2228394 -7.924942c0.54766846 -3.1248703 0.82147217 -6.845726 0.82147217 -11.162567l0 -10.437721c0 -4.3490524 -0.26849365 -8.075279 -0.8053589 -11.178673c-0.5262451 -3.1141357 -1.2510986 -5.7182007 -2.1745605 -7.812187c-0.91278076 -2.0939903 -1.9758911 -3.758438 -3.18927 -4.9933586c-1.2027588 -1.2456551 -2.4805908 -2.1798935 -3.8336182 -2.802719c-1.3530273 -0.6335678 -2.7382812 -1.0469971 -4.1557617 -1.2402878c-1.4174805 -0.19329071 -2.786621 -0.28993607 -4.107422 -0.28993607z" fill-rule="evenodd"></path><path fill="#e69138" d="m718.1903 44.648468c-1.8363037 0 -3.6350098 0.6281967 -5.396057 1.8845901c-1.7504272 1.2563934 -3.302063 3.1409798 -4.6550903 5.6537666l-1.0631104 -6.76519l-8.939758 0l0 66.5405l12.225708 0l0 -54.798054c0.54766846 -1.127533 1.2294922 -2.0027122 2.0456543 -2.6255379c0.82684326 -0.633564 1.7235107 -0.9503479 2.6899414 -0.9503479c0.4510498 0 0.869812 0.10738373 1.2564087 0.32215118c0.38659668 0.20402908 0.7248535 0.57450485 1.0147705 1.1114235c0.28997803 0.5261841 0.520813 1.2241783 0.69262695 2.0939865c0.18255615 0.869812 0.27386475 1.9812355 0.27386475 3.3342743l0 6.185322l8.504822 0c0.22546387 -0.6765213 0.44024658 -1.4228363 0.6442871 -2.2389603c0.21472168 -0.8268547 0.39190674 -1.6483421 0.5315552 -2.4644623c0.15032959 -0.8268547 0.26306152 -1.616127 0.33825684 -2.367817c0.085876465 -0.76242447 0.12884521 -1.417469 0.12884521 -1.965126c0 -4.3168373 -0.83758545 -7.5544662 -2.5127563 -9.712883c-1.6752319 -2.1584206 -4.2685547 -3.237629 -7.7799683 -3.237629z" fill-rule="evenodd"></path><path stroke="#434343" stroke-width="1.0" stroke-linejoin="round" stroke-linecap="butt" d="m23.501703 28.701944c-1.2563934 0 -2.6201706 0.096645355 -4.0913315 0.28993607c-1.4604206 0.19329262 -2.9315834 0.60672 -4.4134817 1.2402859c-1.4818993 0.62282753 -2.9154758 1.5302219 -4.3007298 2.7221832c-1.3852539 1.1919632 -2.6094313 2.7973557 -3.6725326 4.8161736c-1.0631018 2.0080795 -1.9168048 4.4886513 -2.5611086 7.4417114c-0.64430404 2.9423218 -0.96645594 6.4913635 -0.96645594 10.647125l0 29.23529c0 4.1235504 0.31141376 7.6779556 0.9342408 10.663231c0.6335654 2.974533 1.4711609 5.4765854 2.5127854 7.5061417c1.0523629 2.0295563 2.2604332 3.66716 3.6242104 4.912819c1.3745146 1.2349167 2.8080912 2.1906357 4.300729 2.867157c1.503376 0.6765137 3.0013828 1.1167908 4.4940205 1.3208237c1.503376 0.21476746 2.8993683 0.32215118 4.187977 0.32215118c5.669874 -0.032218933 10.018925 -1.6268692 13.047153 -4.7839584c3.0282326 -3.1570892 4.542347 -8.0538025 4.542347 -14.690132l0 -7.635002l-11.452505 0l0 8.069908c0 1.6429749 -0.17181396 3.0711823 -0.5154438 4.284622c-0.33288956 1.2026978 -0.7839031 2.2013702 -1.3530388 2.9960098c-0.5583954 0.783905 -1.2080688 1.3637772 -1.9490185 1.739624c-0.74094963 0.36510468 -1.5141144 0.5476608 -2.3194942 0.5476608c-1.2563934 0 -2.3302326 -0.21477509 -3.2215214 -0.64431c-0.88054657 -0.4402771 -1.5946522 -1.1758499 -2.142311 -2.2067413c-0.547657 -1.0308838 -0.9449768 -2.400032 -1.1919613 -4.107437c-0.2362442 -1.7074051 -0.3543682 -3.8497162 -0.3543682 -6.4269333l0 -37.69178c0 -2.6416473 0.15033913 -4.8483887 0.45101357 -6.620224c0.31141472 -1.7718353 0.7570572 -3.1946754 1.3369312 -4.2685165c0.57987404 -1.0845795 1.3047161 -1.8523712 2.1745262 -2.3033867c0.8698101 -0.45101166 1.8845882 -0.6765175 3.0443363 -0.6765175c1.9329109 0 3.3987026 1.127533 4.397375 3.382595c0.9986706 2.255066 1.4980068 5.6537666 1.4980068 10.19611l0 4.2040863l10.147789 0c0.3543663 -1.8040543 0.6174545 -3.4523964 0.7892723 -4.945034c0.18254852 -1.503376 0.2738266 -3.1409836 0.2738266 -4.912819c0 -2.3839226 -0.2845688 -4.6389885 -0.85370255 -6.76519c-0.5583992 -2.1262054 -1.5087471 -3.9839478 -2.8510437 -5.5732307c-1.331562 -1.6000214 -3.1034012 -2.8564148 -5.315508 -3.7691784c-2.2013721 -0.92350197 -4.945034 -1.3852539 -8.230984 -1.3852539z" fill-rule="evenodd"></path><path stroke="#434343" stroke-width="1.0" stroke-linejoin="round" stroke-linecap="butt" d="m70.32649 79.682495l0 20.827133c-0.6765137 0.77316284 -1.5087357 1.4281998 -2.4966736 1.965126c-0.97719574 0.52617645 -1.9812393 0.7892685 -3.012123 0.7892685c-2.1906319 0 -3.785286 -0.77316284 -4.7839546 -2.3194885c-0.9986725 -1.5463333 -1.4980087 -3.5919952 -1.4980087 -6.137001c0 -1.6429749 0.19865799 -3.1302414 0.5959816 -4.4617996c0.40805817 -1.342308 0.9396095 -2.5450058 1.5946541 -3.6081085c0.6657791 -1.0631027 1.4174652 -1.9812317 2.255062 -2.7543945c0.8375969 -0.7731705 1.6912994 -1.4335785 2.5611115 -1.9812393c0.9342346 -0.57987213 1.8040466 -1.0469894 2.6094284 -1.4013596c0.8053818 -0.35437012 1.53022 -0.660408 2.1745224 -0.9181366zm-5.17054 -35.034027c-2.5449982 0 -4.8806 0.33288956 -7.0068016 0.9986725c-2.1262054 0.65504074 -3.9571037 1.6268654 -5.492691 2.915474c-1.5248566 1.2886086 -2.716816 2.8832626 -3.5758896 4.7839584c-0.84833527 1.9006958 -1.2724991 4.0913315 -1.2724991 6.5718994c0 1.0308876 0.069797516 2.0725136 0.20940018 3.124874c0.1503334 1.0416298 0.37047195 2.1906319 0.66041183 3.4470253l9.326298 0l0 -2.8993645c0 -1.9006996 0.18255234 -3.49535 0.5476608 -4.7839584c0.37584305 -1.2886086 0.8751755 -2.3194962 1.4980049 -3.092659c0.633564 -0.77316666 1.3584061 -1.3208237 2.1745262 -1.6429749c0.8268547 -0.32215118 1.67519 -0.48322678 2.5449982 -0.48322678c1.2886124 0 2.3033905 0.2362442 3.044342 0.7087326c0.7409439 0.46175385 1.2939758 1.1060562 1.6590805 1.9329109c0.37584686 0.81612015 0.61209106 1.7825775 0.7087326 2.8993683c0.09664917 1.1060562 0.14496613 2.3033867 0.14496613 3.5919952l0 8.79475c-1.1919556 0.45101166 -2.5557327 0.9933014 -4.091324 1.6268692c-1.5248566 0.6228256 -2.8993683 1.2402802 -4.1235504 1.8523712c-2.5449982 1.2563934 -4.7839546 2.5879593 -6.7168694 3.9946823c-1.9329109 1.3959961 -3.554409 2.9476929 -4.8644943 4.655098c-1.2993469 1.7074051 -2.2872772 3.6242142 -2.9637985 5.750412c-0.6765175 2.1262054 -1.0147781 4.5584564 -1.0147781 7.2967453c0 2.2872772 0.2791977 4.4081116 0.8375969 6.362503c0.56913376 1.9436493 1.4013596 3.6242065 2.4966774 5.0416794c1.0953178 1.4174652 2.4376144 2.539627 4.0269012 3.3664856c1.6000175 0.81611633 3.4309158 1.2241821 5.492691 1.2241821c2.834938 0 5.353092 -0.5959854 7.5544624 -1.7879486c2.2121124 -1.1919632 3.9785767 -2.7382889 5.2994003 -4.6389847l0.869812 5.7020874l9.084686 0l0 -49.820805c0 -2.9315834 -0.2684555 -5.492691 -0.8053818 -7.6833267c-0.52617645 -2.1906319 -1.444313 -4.010792 -2.7544022 -5.460476c-1.2993393 -1.4496841 -3.0443344 -2.5342636 -5.23497 -3.2537346c-2.190628 -0.73021317 -4.94503 -1.0953178 -8.263199 -1.0953178z" fill-rule="evenodd"></path><path stroke="#434343" stroke-width="1.0" stroke-linejoin="round" stroke-linecap="butt" d="m114.928444 44.648468c-1.8362732 0 -3.6349487 0.6281967 -5.3960495 1.8845901c-1.7503586 1.2563934 -3.3020554 3.1409798 -4.655098 5.6537666l-1.0631027 -6.76519l-8.939713 0l0 66.5405l12.225662 0l0 -54.798054c0.5476608 -1.127533 1.2295532 -2.0027122 2.0456696 -2.6255379c0.8268585 -0.633564 1.7235107 -0.9503479 2.689972 -0.9503479c0.45101166 0 0.8698044 0.10738373 1.2563858 0.32215118c0.38658905 0.20402908 0.7248459 0.57450485 1.0147858 1.1114235c0.28993225 0.5261841 0.520813 1.2241783 0.69262695 2.0939865c0.18254852 0.869812 0.2738266 1.9812355 0.2738266 3.3342743l0 6.185322l8.504814 0c0.22550201 -0.6765213 0.4402771 -1.4228363 0.64430237 -2.2389603c0.21476746 -0.8268547 0.3919525 -1.6483421 0.53154755 -2.4644623c0.15034485 -0.8268547 0.26309967 -1.616127 0.33826447 -2.367817c0.08590698 -0.76242447 0.12886047 -1.417469 0.12886047 -1.965126c0 -4.3168373 -0.8376007 -7.5544662 -2.5127869 -9.712883c-1.6751938 -2.1584206 -4.2685165 -3.237629 -7.7799683 -3.237629z" fill-rule="evenodd"></path><path stroke="#434343" stroke-width="1.0" stroke-linejoin="round" stroke-linecap="butt" d="m171.0312 28.701944c-2.9960022 0 -5.6806183 0.46175194 -8.053787 1.3852539c-2.3624573 0.9127636 -4.34906 2.2013721 -5.9598236 3.8658237c-1.6107483 1.6537132 -2.8456726 3.6242104 -3.7047424 5.9114876c-0.8483429 2.287281 -1.2725067 4.800068 -1.2725067 7.538357c0 3.414814 0.62820435 6.630966 1.8845978 9.648453c1.2563934 3.0067558 3.044342 5.9920273 5.3638306 8.95583l13.04715 15.51162c1.1597595 1.4496841 2.1101074 2.765129 2.8510437 3.9463577c0.74095154 1.1704865 1.3261871 2.2872772 1.7557373 3.35038c0.44026184 1.0631027 0.7463074 2.13694 0.9181366 3.2215195c0.1825409 1.0738373 0.27381897 2.255066 0.27381897 3.5436707c0 2.5127869 -0.6281891 4.424225 -1.8845825 5.7343063c-1.2563934 1.2993469 -3.0765533 1.9490204 -5.4604797 1.9490204c-1.5141144 0 -2.7973633 -0.29530334 -3.8497162 -0.88591766c-1.041626 -0.6013489 -1.8792267 -1.4872665 -2.5127869 -2.657753c-0.62283325 -1.1812286 -1.0738373 -2.625534 -1.3530426 -4.332947c-0.26846313 -1.7074051 -0.40267944 -3.6725311 -0.40267944 -5.895378l0 -4.0107956l-9.712891 0c-0.41879272 1.739624 -0.73558044 3.3611221 -0.9503479 4.864502c-0.20402527 1.49263 -0.30604553 3.1248703 -0.30604553 4.8967056c0 2.1906357 0.29530334 4.332947 0.8859253 6.4269333c0.6013489 2.0939865 1.6322327 3.962471 3.0926514 5.605446c1.4711609 1.6429749 3.4362946 2.9637985 5.8953857 3.962471c2.4698334 0.9986725 5.573227 1.4980011 9.310196 1.4980011c3.0282288 0 5.750412 -0.4402771 8.16655 -1.320816c2.4161377 -0.8912964 4.4779205 -2.1584244 6.185318 -3.8013992c1.7074127 -1.6429749 3.0174866 -3.6403122 3.930252 -5.9920273c0.9235077 -2.3517075 1.3852539 -4.993355 1.3852539 -7.9249344c0 -3.5436783 -0.708725 -6.8994293 -2.1262054 -10.067253c-1.4174652 -3.178566 -3.4470215 -6.4913635 -6.088669 -9.938393l-14.545166 -17.589497c-0.61209106 -0.80537796 -1.1597443 -1.5785446 -1.6429749 -2.3194923c-0.4832306 -0.74095154 -0.8966522 -1.503376 -1.2402802 -2.287281c-0.332901 -0.7946396 -0.59062195 -1.6590805 -0.77316284 -2.5933228c-0.17182922 -0.93424225 -0.25772095 -1.9812355 -0.25772095 -3.1409836c0 -2.1906319 0.5798645 -3.9356232 1.739624 -5.23497c1.1597443 -1.3100853 2.9154663 -1.965126 5.2671814 -1.965126c2.8349304 0 4.8806 1.1704865 6.1369934 3.5114555c1.2563934 2.3302345 1.8845825 5.6859856 1.8845825 10.067253l0 3.9141464l9.664566 0c0.35437012 -1.8040543 0.6657715 -3.4523964 0.9342346 -4.945034c0.27920532 -1.503376 0.41880798 -3.1409836 0.41880798 -4.912819c0 -2.0939865 -0.3006897 -4.1772385 -0.9020233 -6.249748c-0.59062195 -2.083252 -1.6107635 -3.962471 -3.0604553 -5.637661c-1.4496765 -1.67519 -3.393341 -3.0282288 -5.830948 -4.0591145c-2.42688 -1.0308857 -5.4604797 -1.5463295 -9.1008 -1.5463295z" fill-rule="evenodd"></path><path stroke="#434343" stroke-width="1.0" stroke-linejoin="round" stroke-linecap="butt" d="m217.17949 53.58819c2.0295563 0 3.5597687 0.96645355 4.5906677 2.8993645c1.0308838 1.9329147 1.5463257 5.090004 1.5463257 9.4712715c0 0.45101166 0 0.9933014 0 1.6268692c0 0.6228256 -0.0107421875 1.2563934 -0.032211304 1.9006958c-0.0107421875 0.64430237 -0.032226562 1.267128 -0.064437866 1.8684769c-0.032211304 0.5906143 -0.06442261 1.0631027 -0.09664917 1.4174728l-12.273987 0l0 -4.0591125c0 -2.867157 0.12886047 -5.267189 0.38658142 -7.2001c0.25772095 -1.9329109 0.64430237 -3.4846115 1.1597443 -4.655098c0.5154419 -1.181221 1.1758575 -2.018818 1.981247 -2.512783c0.80537415 -0.5047035 1.7396088 -0.7570572 2.802719 -0.7570572zm0.5798645 -8.93972c-1.1919556 0 -2.4913025 0.091278076 -3.8980408 0.2738304c-1.3959961 0.17181396 -2.802719 0.57450485 -4.2201843 1.2080688c-1.4174652 0.6228256 -2.7973633 1.5302238 -4.1396484 2.7221832c-1.3315735 1.1919632 -2.507431 2.813465 -3.5275726 4.864498c-1.0094147 2.0402946 -1.8309021 4.569191 -2.4644623 7.5866776c-0.62283325 3.006752 -0.9342346 6.620224 -0.9342346 10.840416l0 12.563927c0 4.9611435 0.38658142 9.208176 1.1597443 12.741112c0.77316284 3.522194 1.9168091 6.4108276 3.4309235 8.665894c1.5141144 2.2550583 3.3718414 3.9141464 5.573227 4.9772415c2.2120972 1.0631027 4.7517395 1.5946579 7.6188965 1.5946579c5.7020874 0 10.056503 -1.4389496 13.063263 -4.316841c3.0174866 -2.8886337 4.52623 -7.4900284 4.52623 -13.8042145l0 -2.5611038l-10.196106 0l0 2.0778809c0 1.7396164 -0.16107178 3.200035 -0.4832306 4.3812637c-0.3221588 1.1704865 -0.7516937 2.1100998 -1.2886047 2.8188324c-0.5261841 0.7087326 -1.1436462 1.2188034 -1.8523712 1.53022c-0.70874023 0.30067444 -1.4335785 0.45101166 -2.17453 0.45101166c-1.3852539 0 -2.5396423 -0.26309204 -3.4631348 -0.7892685c-0.9127655 -0.53692627 -1.637619 -1.4067383 -2.17453 -2.609436c-0.5261841 -1.21344 -0.9020233 -2.8080902 -1.127533 -4.783951c-0.22550964 -1.9866104 -0.33825684 -4.429596 -0.33825684 -7.328964l0 -6.76519l22.083527 0c0.22549438 -1.0631027 0.44026184 -2.222847 0.64430237 -3.4792404c0.2147522 -1.2563934 0.38658142 -2.5503693 0.5154419 -3.8819351c0.12886047 -1.3422928 0.23086548 -2.70607 0.30604553 -4.091324c0.08589172 -1.3852539 0.12886047 -2.7544022 0.12886047 -4.107445c0 -3.9946823 -0.46176147 -7.328953 -1.3852539 -10.002815c-0.9127655 -2.6738625 -2.1423187 -4.805435 -3.6886444 -6.394718c-1.5463257 -1.6000214 -3.3342743 -2.7275543 -5.3638306 -3.382595c-2.0295563 -0.6657829 -4.1396484 -0.9986725 -6.3302917 -0.9986725z" fill-rule="evenodd"></path><path stroke="#434343" stroke-width="1.0" stroke-linejoin="round" stroke-linecap="butt" d="m264.97073 79.682495l0 20.827133c-0.6765137 0.77316284 -1.508728 1.4281998 -2.4966736 1.965126c-0.97720337 0.52617645 -1.9812317 0.7892685 -3.0121155 0.7892685c-2.1906433 0 -3.7852936 -0.77316284 -4.783966 -2.3194885c-0.9986725 -1.5463333 -1.4980011 -3.5919952 -1.4980011 -6.137001c0 -1.6429749 0.19865417 -3.1302414 0.5959778 -4.4617996c0.40805054 -1.342308 0.9396057 -2.5450058 1.5946503 -3.6081085c0.6657715 -1.0631027 1.4174805 -1.9812317 2.255066 -2.7543945c0.83758545 -0.7731705 1.6912842 -1.4335785 2.5610962 -1.9812393c0.93426514 -0.57987213 1.8040466 -1.0469894 2.609436 -1.4013596c0.8053894 -0.35437012 1.5302124 -0.660408 2.17453 -0.9181366zm-5.170532 -35.034027c-2.5450134 0 -4.880615 0.33288956 -7.0068054 0.9986725c-2.1262054 0.65504074 -3.9571075 1.6268654 -5.492691 2.915474c-1.5248718 1.2886086 -2.7168274 2.8832626 -3.5758972 4.7839584c-0.8483429 1.9006958 -1.2724915 4.0913315 -1.2724915 6.5718994c0 1.0308876 0.0697937 2.0725136 0.20939636 3.124874c0.15032959 1.0416298 0.37046814 2.1906319 0.66041565 3.4470253l9.326294 0l0 -2.8993645c0 -1.9006996 0.1825409 -3.49535 0.5476532 -4.7839584c0.37583923 -1.2886086 0.8751831 -2.3194962 1.4980164 -3.092659c0.6335602 -0.77316666 1.3583984 -1.3208237 2.17453 -1.6429749c0.82684326 -0.32215118 1.6751709 -0.48322678 2.544983 -0.48322678c1.2886047 0 2.3034058 0.2362442 3.044342 0.7087326c0.7409668 0.46175385 1.2939758 1.1060562 1.6590881 1.9329109c0.3758545 0.81612015 0.61209106 1.7825775 0.70874023 2.8993683c0.09664917 1.1060562 0.1449585 2.3033867 0.1449585 3.5919952l0 8.79475c-1.1919556 0.45101166 -2.5557556 0.9933014 -4.091339 1.6268692c-1.5248413 0.6228256 -2.899353 1.2402802 -4.123535 1.8523712c-2.5449982 1.2563934 -4.783951 2.5879593 -6.716873 3.9946823c-1.9329071 1.3959961 -3.5544128 2.9476929 -4.8644867 4.655098c-1.2993622 1.7074051 -2.2872772 3.6242142 -2.9638062 5.750412c-0.6765137 2.1262054 -1.0147705 4.5584564 -1.0147705 7.2967453c0 2.2872772 0.27919006 4.4081116 0.83758545 6.362503c0.5691376 1.9436493 1.4013672 3.6242065 2.4966888 5.0416794c1.0953064 1.4174652 2.4376068 2.539627 4.026886 3.3664856c1.6000214 0.81611633 3.4309235 1.2241821 5.4927063 1.2241821c2.8349457 0 5.353073 -0.5959854 7.5544586 -1.7879486c2.2121277 -1.1919632 3.9785767 -2.7382889 5.299408 -4.6389847l0.869812 5.7020874l9.084686 0l0 -49.820805c0 -2.9315834 -0.26846313 -5.492691 -0.8053894 -7.6833267c-0.5261841 -2.1906319 -1.4443054 -4.010792 -2.7543945 -5.460476c-1.2993469 -1.4496841 -3.044342 -2.5342636 -5.2349854 -3.2537346c-2.1906128 -0.73021317 -4.945038 -1.0953178 -8.263184 -1.0953178z" fill-rule="evenodd"></path><path stroke="#434343" stroke-width="1.0" stroke-linejoin="round" stroke-linecap="butt" d="m294.44763 28.170393l-2.464447 17.251242l-6.2336426 0l0 8.698101l5.170532 0l0 41.26767c0 3.6081085 0.3597412 6.539688 1.0792236 8.794754c0.7302246 2.255066 1.7073975 4.02153 2.9315796 5.2994003c1.2241821 1.267128 2.6255188 2.1262054 4.204071 2.577217c1.5785522 0.45101166 3.221527 0.6765137 4.9289246 0.6765137c0.869812 0 1.7557373 -0.06443024 2.6577759 -0.19329071c0.90200806 -0.12886047 1.7879333 -0.35973358 2.6577454 -0.69262695c0.869812 -0.34362793 1.7127686 -0.7892685 2.5289001 -1.3369293c0.82684326 -0.5476532 1.594635 -1.2563934 2.3033752 -2.1261978l0 -6.7651978c-0.83758545 0.5154419 -1.7181396 0.9181366 -2.6416626 1.2080688c-0.91275024 0.28993988 -1.9651184 0.434906 -3.157074 0.434906c-0.70874023 0 -1.3852539 -0.08053589 -2.0295715 -0.2416153c-0.6442871 -0.16107178 -1.2080688 -0.48859406 -1.6912842 -0.9825592c-0.48321533 -0.50470734 -0.8644409 -1.1973343 -1.1436462 -2.0778809c-0.26843262 -0.89128876 -0.40267944 -2.0617752 -0.40267944 -3.5114594l0 -42.330772l10.631012 0l0 -8.698101l-10.631012 0l0 -17.251242z" fill-rule="evenodd"></path><path stroke="#434343" stroke-width="1.0" stroke-linejoin="round" stroke-linecap="butt" d="m361.80963 28.701944c-1.2564087 0 -2.6201782 0.096645355 -4.091339 0.28993607c-1.4604187 0.19329262 -2.9315796 0.60672 -4.4134827 1.2402859c-1.4819031 0.62282753 -2.9154663 1.5302219 -4.30072 2.7221832c-1.3852539 1.1919632 -2.609436 2.7973557 -3.6725464 4.8161736c-1.0630798 2.0080795 -1.9168091 4.4886513 -2.5610962 7.4417114c-0.6443176 2.9423218 -0.9664612 6.4913635 -0.9664612 10.647125l0 29.23529c0 4.1235504 0.31143188 7.6779556 0.9342346 10.663231c0.63357544 2.974533 1.4711914 5.4765854 2.5127869 7.5061417c1.0523682 2.0295563 2.260437 3.66716 3.6242065 4.912819c1.3745422 1.2349167 2.8081055 2.1906357 4.3007507 2.867157c1.5033875 0.6765137 3.0013733 1.1167908 4.4940186 1.3208237c1.5033875 0.21476746 2.899353 0.32215118 4.187958 0.32215118c5.6698914 -0.032218933 10.018951 -1.6268692 13.04718 -4.7839584c3.0282288 -3.1570892 4.542328 -8.0538025 4.542328 -14.690132l0 -7.635002l-11.452515 0l0 8.069908c0 1.6429749 -0.17178345 3.0711823 -0.5154419 4.284622c-0.33285522 1.2026978 -0.7838745 2.2013702 -1.3530273 2.9960098c-0.5583801 0.783905 -1.2080688 1.3637772 -1.9490356 1.739624c-0.7409363 0.36510468 -1.5140991 0.5476608 -2.3194885 0.5476608c-1.2563782 0 -2.3302002 -0.21477509 -3.2214966 -0.64431c-0.8805542 -0.4402771 -1.5946655 -1.1758499 -2.142334 -2.2067413c-0.54763794 -1.0308838 -0.9449463 -2.400032 -1.1919556 -4.107437c-0.23623657 -1.7074051 -0.35437012 -3.8497162 -0.35437012 -6.4269333l0 -37.69178c0 -2.6416473 0.1503601 -4.8483887 0.4510193 -6.620224c0.31143188 -1.7718353 0.75704956 -3.1946754 1.3369141 -4.2685165c0.579895 -1.0845795 1.304718 -1.8523712 2.17453 -2.3033867c0.869812 -0.45101166 1.884613 -0.6765175 3.044342 -0.6765175c1.9329224 0 3.3987122 1.127533 4.3973694 3.382595c0.99868774 2.255066 1.4980164 5.6537666 1.4980164 10.19611l0 4.2040863l10.147797 0c0.35437012 -1.8040543 0.61746216 -3.4523964 0.7892761 -4.945034c0.18255615 -1.503376 0.2738037 -3.1409836 0.2738037 -4.912819c0 -2.3839226 -0.2845459 -4.6389885 -0.85369873 -6.76519c-0.5583801 -2.1262054 -1.508728 -3.9839478 -2.8510437 -5.5732307c-1.331543 -1.6000214 -3.103363 -2.8564148 -5.3154907 -3.7691784c-2.201355 -0.92350197 -4.945038 -1.3852539 -8.230988 -1.3852539z" fill-rule="evenodd"></path><path stroke="#434343" stroke-width="1.0" stroke-linejoin="round" stroke-linecap="butt" d="m408.63443 79.682495l0 20.827133c-0.6765137 0.77316284 -1.5087585 1.4281998 -2.4966736 1.965126c-0.97720337 0.52617645 -1.9812622 0.7892685 -3.012146 0.7892685c-2.1906128 0 -3.7852783 -0.77316284 -4.7839355 -2.3194885c-0.99868774 -1.5463333 -1.4980164 -3.5919952 -1.4980164 -6.137001c0 -1.6429749 0.19866943 -3.1302414 0.5959778 -4.4617996c0.40808105 -1.342308 0.93963623 -2.5450058 1.5946655 -3.6081085c0.6657715 -1.0631027 1.41745 -1.9812317 2.255066 -2.7543945c0.83758545 -0.7731705 1.6912842 -1.4335785 2.5610962 -1.9812393c0.9342346 -0.57987213 1.8040466 -1.0469894 2.609436 -1.4013596c0.8053894 -0.35437012 1.5302124 -0.660408 2.17453 -0.9181366zm-5.1705627 -35.034027c-2.544983 0 -4.8805847 0.33288956 -7.0068054 0.9986725c-2.1261902 0.65504074 -3.9570923 1.6268654 -5.492676 2.915474c-1.5248413 1.2886086 -2.7167969 2.8832626 -3.5758972 4.7839584c-0.84832764 1.9006958 -1.2724915 4.0913315 -1.2724915 6.5718994c0 1.0308876 0.0697937 2.0725136 0.20941162 3.124874c0.15032959 1.0416298 0.37045288 2.1906319 0.6604004 3.4470253l9.326294 0l0 -2.8993645c0 -1.9006996 0.18255615 -3.49535 0.54766846 -4.7839584c0.3758545 -1.2886086 0.8751831 -2.3194962 1.4979858 -3.092659c0.63357544 -0.77316666 1.358429 -1.3208237 2.17453 -1.6429749c0.8268738 -0.32215118 1.6752014 -0.48322678 2.5450134 -0.48322678c1.2886047 0 2.3033752 0.2362442 3.044342 0.7087326c0.7409363 0.46175385 1.2939758 1.1060562 1.6590881 1.9329109c0.3758545 0.81612015 0.61206055 1.7825775 0.7087097 2.8993683c0.09664917 1.1060562 0.14498901 2.3033867 0.14498901 3.5919952l0 8.79475c-1.1919861 0.45101166 -2.555725 0.9933014 -4.091339 1.6268692c-1.5248413 0.6228256 -2.8993835 1.2402802 -4.123535 1.8523712c-2.5450134 1.2563934 -4.783966 2.5879593 -6.7168884 3.9946823c-1.9328918 1.3959961 -3.5543823 2.9476929 -4.864502 4.655098c-1.2993164 1.7074051 -2.287262 3.6242142 -2.9637756 5.750412c-0.6765137 2.1262054 -1.014801 4.5584564 -1.014801 7.2967453c0 2.2872772 0.27923584 4.4081116 0.83761597 6.362503c0.56915283 1.9436493 1.4013672 3.6242065 2.4966736 5.0416794c1.0953064 1.4174652 2.437622 2.539627 4.026886 3.3664856c1.6000366 0.81611633 3.4309387 1.2241821 5.4927063 1.2241821c2.8349304 0 5.3530884 -0.5959854 7.554474 -1.7879486c2.2120972 -1.1919632 3.9785767 -2.7382889 5.2993774 -4.6389847l0.869812 5.7020874l9.084686 0l0 -49.820805c0 -2.9315834 -0.26843262 -5.492691 -0.8053589 -7.6833267c-0.5261841 -2.1906319 -1.4443054 -4.010792 -2.754425 -5.460476c-1.2993164 -1.4496841 -3.0443115 -2.5342636 -5.234955 -3.2537346c-2.1906433 -0.73021317 -4.945038 -1.0953178 -8.263214 -1.0953178z" fill-rule="evenodd"></path><path stroke="#434343" stroke-width="1.0" stroke-linejoin="round" stroke-linecap="butt" d="m433.3757 24.062956l0 87.89917l12.225647 0l0 -87.89917z" fill-rule="evenodd"></path><path stroke="#434343" stroke-width="1.0" stroke-linejoin="round" stroke-linecap="butt" d="m475.3199 44.648468c-1.127533 0 -2.3678284 0.091278076 -3.7208557 0.2738304c-1.3530273 0.17181396 -2.7221985 0.57450485 -4.1074524 1.2080688c-1.3852539 0.6228256 -2.7329102 1.5302238 -4.0429993 2.7221832c-1.2993164 1.1919632 -2.459076 2.813465 -3.479248 4.864498c-1.0093994 2.0402946 -1.8201599 4.569191 -2.4322205 7.5866776c-0.61209106 3.006752 -0.91815186 6.620224 -0.91815186 10.840416l0 12.563927c0 9.439056 1.4711609 16.461967 4.4134827 21.06874c2.953064 4.6067734 7.2323303 6.910164 12.837769 6.910164c5.5410156 0 9.702148 -1.4389496 12.483368 -4.316841c2.7920227 -2.8886337 4.1879883 -7.4900284 4.1879883 -13.8042145l0 -2.5611038l-10.534363 0l0 2.0778809c0 1.7396164 -0.1395874 3.200035 -0.41879272 4.3812637c-0.26846313 1.1704865 -0.62283325 2.1100998 -1.0631104 2.8188324c-0.4295349 0.7087326 -0.9342346 1.2188034 -1.5141296 1.53022c-0.5798645 0.30067444 -1.1758423 0.45101166 -1.7879333 0.45101166c-1.1919556 0 -2.1906433 -0.28993225 -2.9960022 -0.8698044c-0.8053894 -0.57987976 -1.449707 -1.5033798 -1.9329224 -2.7705078c-0.48321533 -1.2778778 -0.82147217 -2.9315872 -1.0147705 -4.9611435c-0.19329834 -2.0295563 -0.2899475 -4.4940186 -0.2899475 -7.393387l0 -18.894218c0 -2.8671494 0.118133545 -5.2510757 0.35437012 -7.1517715c0.24700928 -1.9006996 0.61746216 -3.414814 1.1114197 -4.542343c0.5047302 -1.127533 1.127533 -1.9221725 1.8684998 -2.3839264c0.7409363 -0.4724884 1.6107483 -0.7087326 2.6094055 -0.7087326c1.8040771 0 3.098053 0.9449806 3.881958 2.8349342c0.7946472 1.8792229 1.1919556 4.4940224 1.1919556 7.8444023l0 2.222847l9.7612 0c0.25772095 -1.0308838 0.45639038 -2.09935 0.5959778 -3.20541c0.1503601 -1.1167908 0.22549438 -2.4483566 0.22549438 -3.9946861c0 -2.480568 -0.37045288 -4.6389885 -1.1114197 -6.475254c-0.7409363 -1.8362656 -1.7879333 -3.355751 -3.1409607 -4.558449c-1.3530579 -1.21344 -2.9638062 -2.115467 -4.832306 -2.7060776c-1.8684692 -0.6013527 -3.9302368 -0.90202713 -6.1853027 -0.90202713z" fill-rule="evenodd"></path><path stroke="#434343" stroke-width="1.0" stroke-linejoin="round" stroke-linecap="butt" d="m500.54437 45.421635l0 50.980556c0 5.4765778 1.0523987 9.567909 3.1571045 12.273987c2.1154785 2.7060776 5.122223 4.0591125 9.020264 4.0591125c1.2241821 0 2.4483643 -0.12886047 3.6725464 -0.38658142c1.2241821 -0.25772095 2.4215088 -0.68188477 3.59198 -1.2724991c1.1812134 -0.6013489 2.3087769 -1.4067307 3.3825684 -2.4161377c1.0845947 -1.0201492 2.1101074 -2.2872772 3.0765991 -3.8013916l0.04827881 0l1.2080688 7.103447l9.326294 0l0 -66.5405l-12.225647 0l0 53.92824c-0.93426514 1.2563934 -1.9812622 2.222847 -3.1409912 2.8993683c-1.159729 0.6765213 -2.3516846 1.0147781 -3.5758667 1.0147781c-1.739624 0 -3.0604248 -0.5691376 -3.9624634 -1.7074051c-0.9020386 -1.1490097 -1.3530273 -3.1893005 -1.3530273 -6.1208878l0 -50.014095z" fill-rule="evenodd"></path><path stroke="#434343" stroke-width="1.0" stroke-linejoin="round" stroke-linecap="butt" d="m549.97864 24.062956l0 87.89917l12.225647 0l0 -87.89917z" fill-rule="evenodd"></path><path stroke="#434343" stroke-width="1.0" stroke-linejoin="round" stroke-linecap="butt" d="m595.0638 79.682495l0 20.827133c-0.6765137 0.77316284 -1.5087891 1.4281998 -2.496704 1.965126c-0.97717285 0.52617645 -1.9812012 0.7892685 -3.012085 0.7892685c-2.1906128 0 -3.7852783 -0.77316284 -4.7839355 -2.3194885c-0.99871826 -1.5463333 -1.4980469 -3.5919952 -1.4980469 -6.137001c0 -1.6429749 0.19866943 -3.1302414 0.5960083 -4.4617996c0.40802002 -1.342308 0.9395752 -2.5450058 1.5946655 -3.6081085c0.66571045 -1.0631027 1.4174194 -1.9812317 2.255005 -2.7543945c0.8376465 -0.7731705 1.6913452 -1.4335785 2.5611572 -1.9812393c0.9342041 -0.57987213 1.8040161 -1.0469894 2.609436 -1.4013596c0.8053589 -0.35437012 1.5302124 -0.660408 2.1744995 -0.9181366zm-5.170532 -35.034027c-2.544983 0 -4.880615 0.33288956 -7.006836 0.9986725c-2.1261597 0.65504074 -3.9570923 1.6268654 -5.492676 2.915474c-1.5248413 1.2886086 -2.716858 2.8832626 -3.5758667 4.7839584c-0.8483887 1.9006958 -1.272522 4.0913315 -1.272522 6.5718994c0 1.0308876 0.06976318 2.0725136 0.20941162 3.124874c0.15032959 1.0416298 0.3704834 2.1906319 0.6604004 3.4470253l9.326294 0l0 -2.8993645c0 -1.9006996 0.18255615 -3.49535 0.54766846 -4.7839584c0.3758545 -1.2886086 0.8751831 -2.3194962 1.4979858 -3.092659c0.6335449 -0.77316666 1.3583984 -1.3208237 2.1745605 -1.6429749c0.82684326 -0.32215118 1.6751709 -0.48322678 2.544983 -0.48322678c1.2886353 0 2.3034058 0.2362442 3.0443726 0.7087326c0.74090576 0.46175385 1.2939453 1.1060562 1.6590576 1.9329109c0.37579346 0.81612015 0.61206055 1.7825775 0.70874023 2.8993683c0.09661865 1.1060562 0.1449585 2.3033867 0.1449585 3.5919952l0 8.79475c-1.1919556 0.45101166 -2.5557861 0.9933014 -4.0913086 1.6268692c-1.5249023 0.6228256 -2.899414 1.2402802 -4.123535 1.8523712c-2.545044 1.2563934 -4.7839966 2.5879593 -6.716919 3.9946823c-1.9329224 1.3959961 -3.5543823 2.9476929 -4.864502 4.655098c-1.2993164 1.7074051 -2.2872314 3.6242142 -2.963745 5.750412c-0.6765747 2.1262054 -1.0148315 4.5584564 -1.0148315 7.2967453c0 2.2872772 0.2791748 4.4081116 0.8376465 6.362503c0.5690918 1.9436493 1.4013062 3.6242065 2.496643 5.0416794c1.0953369 1.4174652 2.437622 2.539627 4.0269165 3.3664856c1.5999756 0.81611633 3.4309082 1.2241821 5.492676 1.2241821c2.834961 0 5.3530884 -0.5959854 7.5544434 -1.7879486c2.2120972 -1.1919632 3.9785767 -2.7382889 5.2994385 -4.6389847l0.869812 5.7020874l9.084656 0l0 -49.820805c0 -2.9315834 -0.26843262 -5.492691 -0.8053589 -7.6833267c-0.5261841 -2.1906319 -1.4443359 -4.010792 -2.7543945 -5.460476c-1.2993774 -1.4496841 -3.0443115 -2.5342636 -5.2349854 -3.2537346c-2.1906128 -0.73021317 -4.9450073 -1.0953178 -8.263184 -1.0953178z" fill-rule="evenodd"></path><path stroke="#434343" stroke-width="1.0" stroke-linejoin="round" stroke-linecap="butt" d="m624.5407 28.170393l-2.4644775 17.251242l-6.2336426 0l0 8.698101l5.170532 0l0 41.26767c0 3.6081085 0.3597412 6.539688 1.0792236 8.794754c0.7301636 2.255066 1.7073975 4.02153 2.9315796 5.2994003c1.2241821 1.267128 2.6255493 2.1262054 4.2041016 2.577217c1.5784912 0.45101166 3.2214966 0.6765137 4.928894 0.6765137c0.869812 0 1.7557373 -0.06443024 2.6577759 -0.19329071c0.9020386 -0.12886047 1.7879028 -0.35973358 2.6577148 -0.69262695c0.869812 -0.34362793 1.7127686 -0.7892685 2.5289307 -1.3369293c0.82684326 -0.5476532 1.5946655 -1.2563934 2.3033447 -2.1261978l0 -6.7651978c-0.83758545 0.5154419 -1.7181396 0.9181366 -2.6416016 1.2080688c-0.91278076 0.28993988 -1.9651489 0.434906 -3.1571045 0.434906c-0.70874023 0 -1.3852539 -0.08053589 -2.029541 -0.2416153c-0.64434814 -0.16107178 -1.2080688 -0.48859406 -1.6913452 -0.9825592c-0.48321533 -0.50470734 -0.8644409 -1.1973343 -1.1436157 -2.0778809c-0.26849365 -0.89128876 -0.40270996 -2.0617752 -0.40270996 -3.5114594l0 -42.330772l10.6310425 0l0 -8.698101l-10.6310425 0l0 -17.251242z" fill-rule="evenodd"></path><path stroke="#434343" stroke-width="1.0" stroke-linejoin="round" stroke-linecap="butt" d="m669.0943 53.58819c1.0953369 0 2.0187988 0.28993607 2.7705078 0.8698082c0.76239014 0.57987595 1.3745117 1.5248528 1.8363037 2.834938c0.47247314 1.2993469 0.81073 3.012123 1.0147705 5.1383247c0.21472168 2.1262054 0.32214355 4.7517395 0.32214355 7.8766174l0 16.381432c0 3.1248703 -0.107421875 5.745041 -0.32214355 7.860504c-0.20404053 2.1047287 -0.54229736 3.8013916 -1.0147705 5.090004c-0.461792 1.2886047 -1.0739136 2.217476 -1.8363037 2.7866135c-0.751709 0.5583954 -1.6751709 0.8375931 -2.7705078 0.8375931c-1.159729 0 -2.136963 -0.2791977 -2.9315796 -0.8375931c-0.78393555 -0.5691376 -1.4335938 -1.4980087 -1.9490356 -2.7866135c-0.5154419 -1.2886124 -0.88586426 -2.9852753 -1.1113892 -5.090004c-0.2255249 -2.1154633 -0.33825684 -4.735634 -0.33825684 -7.860504l0 -16.381432c0 -3.124878 0.11273193 -5.750412 0.33825684 -7.8766174c0.2255249 -2.1262016 0.59594727 -3.8389778 1.1113892 -5.1383247c0.5154419 -1.3100853 1.1651001 -2.255062 1.9490356 -2.834938c0.7946167 -0.57987213 1.7718506 -0.8698082 2.9315796 -0.8698082zm-0.04827881 -8.93972c-1.3852539 0 -2.8027344 0.10738373 -4.2524414 0.32215118c-1.449707 0.20402908 -2.8618164 0.6389351 -4.236267 1.304718c-1.3638306 0.65504074 -2.6577759 1.6053886 -3.881958 2.8510437c-1.2241821 1.2349167 -2.2980347 2.8993683 -3.2214966 4.993355c-0.91278076 2.0939903 -1.6376343 4.681946 -2.1745605 7.7638664c-0.5261841 3.0711784 -0.7892456 6.765194 -0.7892456 11.082027l0 10.437721c0 4.3812714 0.25769043 8.150452 0.7731323 11.307541c0.5154419 3.1570892 1.2241821 5.814842 2.1262207 7.973259c0.9020386 2.1584167 1.9543457 3.8980408 3.1571045 5.2188644c1.2133789 1.3208237 2.5020142 2.3356018 3.8657837 3.0443344c1.3745117 0.7087326 2.7919922 1.1758575 4.2524414 1.4013596c1.4711304 0.22550964 2.9154663 0.33826447 4.332947 0.33826447c1.2885742 0 2.6308594 -0.12348938 4.0269165 -0.37047577c1.4066772 -0.2362442 2.78656 -0.7248459 4.1396484 -1.4657898c1.3530273 -0.74095154 2.6416016 -1.777214 3.8657837 -3.1087723c1.2241821 -1.3423004 2.3034058 -3.092659 3.237671 -5.2510757c0.9342041 -2.1584167 1.6751709 -4.800064 2.2228394 -7.924942c0.54766846 -3.1248703 0.82147217 -6.845726 0.82147217 -11.162567l0 -10.437721c0 -4.3490524 -0.26849365 -8.075279 -0.8053589 -11.178673c-0.5262451 -3.1141357 -1.2510986 -5.7182007 -2.1745605 -7.812187c-0.91278076 -2.0939903 -1.9758911 -3.758438 -3.18927 -4.9933586c-1.2027588 -1.2456551 -2.4805908 -2.1798935 -3.8336182 -2.802719c-1.3530273 -0.6335678 -2.7382812 -1.0469971 -4.1557617 -1.2402878c-1.4174805 -0.19329071 -2.786621 -0.28993607 -4.107422 -0.28993607z" fill-rule="evenodd"></path><path stroke="#434343" stroke-width="1.0" stroke-linejoin="round" stroke-linecap="butt" d="m718.1903 44.648468c-1.8363037 0 -3.6350098 0.6281967 -5.396057 1.8845901c-1.7504272 1.2563934 -3.302063 3.1409798 -4.6550903 5.6537666l-1.0631104 -6.76519l-8.939758 0l0 66.5405l12.225708 0l0 -54.798054c0.54766846 -1.127533 1.2294922 -2.0027122 2.0456543 -2.6255379c0.82684326 -0.633564 1.7235107 -0.9503479 2.6899414 -0.9503479c0.4510498 0 0.869812 0.10738373 1.2564087 0.32215118c0.38659668 0.20402908 0.7248535 0.57450485 1.0147705 1.1114235c0.28997803 0.5261841 0.520813 1.2241783 0.69262695 2.0939865c0.18255615 0.869812 0.27386475 1.9812355 0.27386475 3.3342743l0 6.185322l8.504822 0c0.22546387 -0.6765213 0.44024658 -1.4228363 0.6442871 -2.2389603c0.21472168 -0.8268547 0.39190674 -1.6483421 0.5315552 -2.4644623c0.15032959 -0.8268547 0.26306152 -1.616127 0.33825684 -2.367817c0.085876465 -0.76242447 0.12884521 -1.417469 0.12884521 -1.965126c0 -4.3168373 -0.83758545 -7.5544662 -2.5127563 -9.712883c-1.6752319 -2.1584206 -4.2685547 -3.237629 -7.7799683 -3.237629z" fill-rule="evenodd"></path></g></svg>

